<?xml version="1.0" standalone="no"?>
<!DOCTYPE svg PUBLIC "-//W3C//DTD SVG 20010904//EN"
 "http://www.w3.org/TR/2001/REC-SVG-20010904/DTD/svg10.dtd">
<svg version="1.0" xmlns="http://www.w3.org/2000/svg"
 width="612.000000pt" height="612.000000pt" viewBox="0 0 612.000000 612.000000"
 preserveAspectRatio="xMidYMid meet">

<g transform="translate(0.000000,612.000000) scale(0.100000,-0.100000)"
fill="#000000" stroke="none">
<path d="M930 4515 l0 -95 296 0 295 0 14 -32 c13 -32 158 -434 420 -1168 68
-190 183 -509 255 -710 72 -201 137 -381 143 -400 l12 -35 861 -3 861 -2 32
88 c17 48 31 91 31 95 0 4 -370 8 -822 9 l-821 3 -69 189 c-37 104 -68 191
-68 195 0 3 429 5 954 3 757 -2 955 0 964 10 5 7 58 148 117 313 59 165 136
379 170 475 182 510 215 602 215 606 0 2 -659 4 -1464 4 l-1464 0 -98 275 -99
275 -367 0 -368 0 0 -95z m1724 -682 c3 -16 8 -53 11 -83 4 -30 9 -63 11 -72
5 -17 -16 -18 -333 -18 l-339 0 -32 93 c-18 50 -32 95 -32 100 0 4 159 7 354
7 l354 0 6 -27z m930 -60 c-8 -49 -14 -94 -14 -101 0 -10 -73 -12 -347 -10
l-348 3 -12 80 c-6 44 -12 88 -12 98 -1 16 23 17 372 17 l374 0 -13 -87z m925
80 c0 -5 -15 -48 -33 -98 l-32 -90 -337 -3 c-316 -2 -337 -1 -337 15 0 10 5
55 12 101 l11 82 359 0 c197 0 358 -3 357 -7z m-1791 -482 c7 -48 12 -96 12
-105 0 -14 -28 -16 -289 -16 l-288 0 -33 93 c-18 50 -35 98 -38 105 -3 9 63
12 310 12 l314 0 12 -89z m822 82 c0 -8 -16 -113 -25 -170 l-6 -33 -289 0
c-172 0 -290 4 -290 9 0 19 -21 166 -26 184 -5 16 15 17 315 17 177 0 321 -3
321 -7z m828 -1 c-1 -4 -19 -52 -38 -105 l-34 -97 -293 0 c-200 0 -293 3 -293
11 0 14 19 148 26 177 l4 22 316 0 c174 0 314 -4 312 -8z m-1604 -419 c3 -16
8 -50 11 -78 4 -27 9 -62 11 -77 l6 -28 -249 0 -248 0 -33 93 c-17 50 -32 98
-32 105 0 9 60 12 264 12 l264 0 6 -27z m716 11 c0 -9 -5 -57 -12 -105 l-12
-89 -233 0 -233 0 -4 23 c-7 28 -26 162 -26 176 0 8 84 11 260 11 234 0 260
-2 260 -16z m739 4 c0 -7 -15 -53 -33 -103 l-33 -90 -250 -3 -249 -2 14 105
15 105 269 0 c208 0 268 -3 267 -12z"/>
<path d="M2545 1970 c-107 -15 -211 -94 -262 -198 -24 -49 -28 -69 -28 -142 0
-76 4 -92 33 -152 102 -209 367 -261 537 -106 31 28 68 74 83 102 24 45 27 62
27 151 0 91 -3 105 -29 158 -17 32 -49 75 -72 97 -65 60 -106 77 -219 94 -11
2 -43 0 -70 -4z m125 -203 c48 -25 90 -89 90 -136 0 -37 -40 -111 -72 -134
-42 -31 -118 -34 -166 -7 -92 52 -110 184 -36 252 58 52 118 60 184 25z"/>
<path d="M3792 1969 c-110 -14 -214 -92 -264 -198 -18 -37 -22 -65 -23 -141 0
-113 18 -162 89 -238 128 -137 343 -145 483 -18 22 19 55 64 74 98 32 58 34
70 34 153 0 82 -3 97 -33 157 -67 136 -203 207 -360 187z m138 -207 c120 -88
78 -273 -65 -290 -86 -9 -153 36 -175 118 -20 73 21 153 95 187 38 17 111 9
145 -15z"/>
</g>
</svg>
